<svg xmlns="http://www.w3.org/2000/svg" width="220" height="60" viewBox="0 0 220 60">
  <rect width="220" height="60" rx="10" fill="#1a1a1a"/>
  <g fill="#ffffff">
    <path d="M40.5 18.8c1.2-1.5 2-3.5 1.8-5.5-1.7.1-3.8 1.2-5 2.6-1.1 1.3-2.1 3.3-1.8 5.3 1.9.1 3.8-1 5-2.4zm1.7 2.7c-2.8-.2-5.1 1.6-6.4 1.6s-3.4-1.5-5.5-1.5c-2.9 0-5.5 1.7-7 4.2-3 5.1-.8 12.7 2.1 16.9 1.4 2.1 3.1 4.3 5.3 4.3 2.1-.1 2.9-1.4 5.5-1.4 2.5 0 3.2 1.4 5.4 1.3 2.3 0 3.7-2.1 5.1-4.1 1.6-2.4 2.3-4.6 2.3-4.8 0 0-4.4-1.7-4.5-6.7 0-4.2 3.4-6.2 3.6-6.3-2-2.9-5-3.3-6-3.4z" transform="translate(-10, -6) scale(0.75)"/>
  </g>
  <text x="70" y="25" fill="#cccccc" font-family="Arial, Helvetica, sans-serif" font-size="11">Download app for</text>
  <text x="70" y="45" fill="#ffffff" font-family="Arial, Helvetica, sans-serif" font-size="22" font-weight="bold">macOS</text>
</svg>